<svg width="20" height="20" viewBox="0 0 20 20" fill="none" xmlns="http://www.w3.org/2000/svg">
<path d="M19.6548 16.7464L15.4898 12.5784C14.6873 11.7752 13.3855 11.775 12.5827 12.5778V12.5778C11.7801 13.3805 11.7801 14.6818 12.5827 15.4844L16.7517 19.6535C17.2131 20.1149 17.9726 20.1149 18.4339 19.6535L19.6548 18.4327C20.1162 17.9672 20.1162 17.2037 19.6548 16.7464Z" fill="#333333"/>
<path d="M10.4939 12.0154C10.9145 12.4359 11.5963 12.4359 12.0169 12.0154V12.0154C12.4374 11.5948 12.4374 10.9129 12.0169 10.4924L11.8331 10.3086C11.3758 9.85125 11.3273 9.13723 11.5919 8.5471C12.5923 6.31644 12.1798 3.60386 10.349 1.77306C7.98489 -0.591019 4.14275 -0.591019 1.77459 1.77306C-0.593571 4.13714 -0.589488 7.97927 1.77459 10.3474C3.60539 12.1782 6.31797 12.5908 8.54863 11.5904C9.13876 11.3258 9.85278 11.3742 10.3101 11.8315L10.4939 12.0154ZM2.9505 9.15519C1.23563 7.44031 1.23563 4.65977 2.9505 2.94897C4.66538 1.2341 7.44593 1.2341 9.15672 2.94897C10.8716 4.66385 10.8716 7.4444 9.15672 9.15519C7.44593 10.8701 4.66538 10.8701 2.9505 9.15519Z" fill="#333333"/>
</svg>
